<?xml version="1.0" encoding="UTF-8" standalone="no"?>
<svg width="99px" height="108px" viewBox="0 0 99 108" version="1.1" xmlns="http://www.w3.org/2000/svg" xmlns:xlink="http://www.w3.org/1999/xlink">
    <!-- Generator: Sketch 3.7.2 (28276) - http://www.bohemiancoding.com/sketch -->
    <title>icon</title>
    <desc>Created with Sketch.</desc>
    <defs></defs>
    <g id="Page-1" stroke="none" stroke-width="1" fill="none" fill-rule="evenodd">
        <g id="icon" transform="translate(49.588235, 53.457447) scale(-1, 1) translate(-49.588235, -53.457447) translate(2.588235, 2.457447)" stroke="#527E73" stroke-width="5">
            <path d="M72.9775962,72.0279532 C56.833126,92.5740744 23.6833018,101.808125 23.6833018,101.808125 C23.6833018,101.808125 1.10086551,74.3578663 0.538386263,48.4910272 C-0.0240929892,22.624188 8.25495665,4.89204187 8.25495665,4.89204187 C8.25495665,4.89204187 29.2992941,-4.29780131 54.3190219,3.83160103 C79.3387496,11.9610034 93.1309395,32.4699204 93.1309395,32.4699204 C93.1309395,32.4699204 83.2538724,58.9499388 72.9775962,72.0279532 L72.9775962,72.0279532 Z" id="Triangle-1" transform="translate(46.820955, 51.141241) scale(-1, 1) translate(-46.820955, -51.141241) "></path>
            <path d="M39.8623162,3.9703288 C39.8623162,3.9703288 60.6795002,17.434252 69.7920758,101.470247" id="Path-33"></path>
            <path d="M1.38273291,32.6131788 C1.38273291,32.6131788 63.1283293,15.7527134 91.6082991,58.5489721" id="Path-31"></path>
            <path d="M86.069162,5.5728286 C86.069162,5.5728286 39.4665013,37.1631579 27.5879696,78.5590011" id="Path-35"></path>
        </g>
    </g>
</svg>