<?xml version="1.0" encoding="UTF-8" standalone="no"?>
<svg width="99px" height="108px" viewBox="0 0 99 108" version="1.1" xmlns="http://www.w3.org/2000/svg" xmlns:xlink="http://www.w3.org/1999/xlink" xmlns:sketch="http://www.bohemiancoding.com/sketch/ns">
    <!-- Generator: Sketch 3.3.3 (12072) - http://www.bohemiancoding.com/sketch -->
    <title>Group</title>
    <desc>Created with Sketch.</desc>
    <defs></defs>
    <g id="Page-1" stroke="none" stroke-width="1" fill="none" fill-rule="evenodd" sketch:type="MSPage">
        <g id="login" sketch:type="MSArtboardGroup" transform="translate(-502.000000, -242.000000)" stroke="#523A9D" stroke-width="5">
            <g id="cypress-+-Group-Copy-6" sketch:type="MSLayerGroup" transform="translate(504.000000, 228.000000)">
                <g id="Group" transform="translate(47.588235, 67.457447) scale(-1, 1) translate(-47.588235, -67.457447) translate(0.588235, 16.457447)" sketch:type="MSShapeGroup">
                    <path d="M72.7802064,72.0279532 C56.6357362,92.5740744 23.485912,101.808125 23.485912,101.808125 C23.485912,101.808125 0.90347573,74.3578663 0.340996478,48.4910272 C-0.221482774,22.624188 8.05756687,4.89204187 8.05756687,4.89204187 C8.05756687,4.89204187 29.1019043,-4.29780131 54.1216321,3.83160103 C79.1413598,11.9610034 92.9335497,32.4699204 92.9335497,32.4699204 C92.9335497,32.4699204 83.0564826,58.9499388 72.7802064,72.0279532 Z" id="Triangle-1" transform="translate(46.722260, 51.211336) scale(-1, 1) translate(-46.722260, -51.211336) "></path>
                    <path d="M39.8623162,3.9703288 C39.8623162,3.9703288 60.6795002,17.434252 69.7920758,101.470247" id="Path-33"></path>
                    <path d="M1.38273291,32.6131788 C1.38273291,32.6131788 63.1283293,15.7527134 91.6082991,58.5489721" id="Path-31"></path>
                    <path d="M86.069162,5.5728286 C86.069162,5.5728286 39.4665013,37.1631579 27.5879696,78.5590011" id="Path-35"></path>
                </g>
            </g>
        </g>
    </g>
</svg>