<?xml version="1.0" standalone="no"?>
<!DOCTYPE svg PUBLIC "-//W3C//DTD SVG 20010904//EN"
 "http://www.w3.org/TR/2001/REC-SVG-20010904/DTD/svg10.dtd">
<svg version="1.0" xmlns="http://www.w3.org/2000/svg"
 width="200.000000pt" height="200.000000pt" viewBox="0 0 200.000000 200.000000"
 preserveAspectRatio="xMidYMid meet">
<metadata>
Created by potrace 1.12, written by Peter Selinger 2001-2015
</metadata>
<g transform="translate(0.000000,200.000000) scale(0.100000,-0.100000)"
fill="#000000" stroke="none">
<path d="M1393 1862 c-241 -2 -283 -4 -283 -17 0 -13 44 -15 298 -17 l297 -3
3 -267 2 -267 -122 -3 -123 -3 -3 -207 -2 -208 -205 0 -205 0 0 -194 c0 -164
-3 -197 -16 -210 -13 -13 -46 -16 -209 -16 l-194 0 -3 -142 -3 -143 -154 -3
c-104 -2 -158 1 -167 9 -12 9 -14 99 -14 519 0 442 -2 509 -15 514 -13 5 -15
-57 -15 -518 0 -494 1 -524 18 -539 16 -15 45 -17 200 -17 l181 0 3 142 3 143
205 5 205 5 5 205 5 205 205 5 205 5 3 203 2 202 114 0 c86 0 116 3 125 14 18
21 11 557 -7 578 -18 23 -29 23 -339 20z"/>
</g>
</svg>
