<?xml version="1.0" encoding="UTF-8" standalone="no"?>
<svg width="27px" height="53px" viewBox="0 0 27 53" version="1.1" xmlns="http://www.w3.org/2000/svg" xmlns:xlink="http://www.w3.org/1999/xlink">
    <defs></defs>
    <g id="Page-1" stroke="none" stroke-width="1" fill="none" fill-rule="evenodd">
        <path d="M12.1050526,6.568 C8.93703678,6.568 5.84106774,7.38399184 2.81705262,9.016 L0.945052623,3.832 C2.57706078,2.96799568 4.41304242,2.27200264 6.45305262,1.744 C8.49306282,1.21599736 10.6650411,0.952 12.9690526,0.952 C15.7050663,0.952 17.9490439,1.32399628 19.7010526,2.068 C21.4530614,2.81200372 22.8570473,3.75999424 23.9130526,4.912 C24.9690579,6.06400576 25.7010506,7.34799292 26.1090526,8.764 C26.5170547,10.1800071 26.7210526,11.5359935 26.7210526,12.832 C26.7210526,14.4640082 26.4090557,15.9159936 25.7850526,17.188 C25.1610495,18.4600064 24.3930572,19.6479945 23.4810526,20.752 C22.5690481,21.8560055 21.5610581,22.911995 20.4570526,23.92 C19.3530471,24.928005 18.3450572,25.9719946 17.4330526,27.052 C16.5210481,28.1320054 15.7530557,29.3079936 15.1290526,30.58 C14.5050495,31.8520064 14.1930526,33.2799921 14.1930526,34.864 L14.1930526,35.656 C14.1930526,35.9440014 14.2170524,36.2079988 14.2650526,36.448 L8.64905262,36.448 C8.45705166,35.4879952 8.36105262,34.4800053 8.36105262,33.424 C8.36105262,31.8879923 8.63704986,30.4960062 9.18905262,29.248 C9.74105538,27.9999938 10.4490483,26.8360054 11.3130526,25.756 C12.1770569,24.6759946 13.0890478,23.6680047 14.0490526,22.732 C15.0090574,21.7959953 15.9210483,20.8480048 16.7850526,19.888 C17.6490569,18.9279952 18.3570499,17.9200053 18.9090526,16.864 C19.4610554,15.8079947 19.7370526,14.6560062 19.7370526,13.408 C19.7370526,11.3919899 19.0890591,9.74800636 17.7930526,8.476 C16.4970461,7.20399364 14.6010651,6.568 12.1050526,6.568 L12.1050526,6.568 Z M16.6410526,48.112 C16.6410526,49.4080065 16.2090569,50.5359952 15.3450526,51.496 C14.4810483,52.4560048 13.3050601,52.936 11.8170526,52.936 C10.3290452,52.936 9.15305694,52.4560048 8.28905262,51.496 C7.4250483,50.5359952 6.99305262,49.4080065 6.99305262,48.112 C6.99305262,46.8159935 7.4250483,45.6880048 8.28905262,44.728 C9.15305694,43.7679952 10.3290452,43.288 11.8170526,43.288 C13.3050601,43.288 14.4810483,43.7679952 15.3450526,44.728 C16.2090569,45.6880048 16.6410526,46.8159935 16.6410526,48.112 L16.6410526,48.112 Z" id="?" fill="#F6A623"></path>
    </g>
</svg>